<svg version="1.2" baseProfile="tiny-ps" xmlns="http://www.w3.org/2000/svg" viewBox="0 0 1606 581" width="1606" height="581">
	<title>download (1)-svg</title>
	<style>
		tspan { white-space:pre }
		.shp0 { fill: #0468ff } 
		.shp1 { fill: #152242 } 
	</style>
	<path id="Layer" fill-rule="evenodd" class="shp0" d="M283.39 0.33C332.75 0.33 372.76 40.66 372.76 90.42C372.77 95.28 372.39 100.14 371.61 104.94C370.84 109.75 369.68 114.48 368.14 119.1C366.6 123.71 364.69 128.2 362.43 132.51C360.16 136.81 357.56 140.93 354.63 144.82L283.39 232.5L218.12 153.13L212.17 144.84C209.25 140.95 206.64 136.83 204.37 132.52C202.11 128.21 200.2 123.73 198.66 119.11C197.12 114.5 195.95 109.76 195.18 104.96C194.4 100.15 194.02 95.3 194.02 90.43C194.02 40.66 234.04 0.34 283.41 0.34L283.39 0.33ZM283.39 131.53C283.4 131.53 283.4 131.53 283.4 131.53C283.4 131.53 283.41 131.53 283.41 131.53L283.39 131.53ZM242.43 90.23C242.43 67.41 260.77 48.91 283.41 48.91C306.02 48.91 324.38 67.41 324.38 90.23C324.38 113.04 306.03 131.52 283.4 131.53C260.76 131.52 242.43 113.04 242.43 90.23ZM317.51 267.73L251.31 267.73L251.31 338.73L185.16 258.6L0.93 481.72L62.21 533.14L185.16 384.26L308.1 533.14L369.37 481.72L317.51 418.91L317.51 267.73Z" />
	<path id="Layer" fill-rule="evenodd" class="shp1" d="M723.52 473.62L759.44 473.62L759.44 580.67L706.25 580.67L706.25 528.35L490.07 528.35L490.07 267.54L548.77 267.54L548.77 473.59L664.82 473.59L664.82 267.52L723.52 267.52L723.52 473.62ZM859.22 443.11L982.16 267.52L1040.86 267.52L1040.86 528.33L982.15 528.33L982.15 352.74L859.2 528.33L800.51 528.33L800.51 267.52L859.2 267.52L859.2 443.11L859.22 443.11ZM1605.07 267.52L1605.07 528.33L1546.72 528.33L1546.72 425.11L1426.88 425.11L1426.88 528.33L1368.17 528.33L1368.17 267.52L1426.88 267.52L1426.88 370L1546.72 370L1546.72 267.52L1605.07 267.52ZM1203.92 262.55C1269.72 262.55 1310.62 300.85 1310.62 362.51L1310.62 528.3L1261.06 528.3L1260.5 525.2L1256.48 502.86C1248.36 512.01 1224.73 533.36 1181.32 533.36C1153.6 533.36 1129.95 525.38 1112.94 510.27C1096.31 495.54 1087.18 474.53 1087.18 451.11C1087.18 423.95 1096.06 402.56 1113.6 387.49C1131.91 371.77 1158.91 363.8 1193.86 363.8L1252.91 363.8L1252.91 362.51C1252.91 331.58 1234.6 313.12 1203.92 313.12C1170.62 313.12 1157.79 331.99 1155.15 344.1L1097.28 344.1C1098.73 321.56 1109.43 301.1 1127.5 286.48C1146.82 270.83 1173.24 262.55 1203.92 262.55ZM1252.91 418.21L1252.91 411.84L1196.38 411.84C1164.14 411.84 1144.88 425.58 1144.88 448.58C1144.88 470.65 1159.6 482.79 1186.34 482.79C1207.71 482.79 1224.37 477.09 1235.84 465.82C1247.17 454.69 1252.92 438.68 1252.92 418.21L1252.91 418.21Z" />
</svg>