<svg width="131" height="30" viewBox="0 0 131 30" fill="none" xmlns="http://www.w3.org/2000/svg">
<path d="M125.697 17.1655H118.718V25H113.97V6.71381H118.718V13.3237H125.697V6.71381H130.428V25H125.697V17.1655Z" fill="url(#paint0_linear_493_4118)"/>
<path d="M98.8547 25.0168C97.781 24.6477 96.8415 24.0717 96.0363 23.2888C95.2422 22.4947 94.6159 21.4714 94.1573 20.2187C93.6988 18.9661 93.4695 17.4451 93.4695 15.6556C93.4695 14.4141 93.6317 13.223 93.956 12.0822C94.2915 10.9303 94.806 9.91809 95.4994 9.04572C96.204 8.17335 97.0988 7.47993 98.1836 6.96546C99.2797 6.4398 100.594 6.17697 102.126 6.17697C103.748 6.17697 105.112 6.44539 106.219 6.98223C107.327 7.50789 108.216 8.25723 108.887 9.23026C109.569 10.2033 110.056 11.3776 110.346 12.7533C110.637 14.1289 110.783 15.6556 110.783 17.3332H98.2507C98.2507 17.501 98.2675 17.7247 98.3011 18.0043C98.3346 18.2839 98.4017 18.5859 98.5024 18.9102C98.603 19.2345 98.7484 19.5645 98.9386 19.9C99.1287 20.2243 99.3803 20.5207 99.6935 20.7891C100.018 21.0576 100.409 21.2757 100.868 21.4434C101.338 21.6112 101.897 21.6951 102.545 21.6951C102.881 21.6951 103.211 21.6503 103.535 21.5609C103.871 21.4602 104.178 21.3204 104.458 21.1414C104.738 20.9513 104.978 20.7276 105.179 20.4704C105.392 20.202 105.543 19.9 105.632 19.5645H110.548C110.548 19.9 110.475 20.2859 110.33 20.722C110.184 21.147 109.961 21.5832 109.659 22.0306C109.368 22.4668 108.999 22.8974 108.551 23.3224C108.104 23.7474 107.573 24.1276 106.958 24.4632C106.343 24.7875 105.643 25.0503 104.861 25.2516C104.089 25.453 103.228 25.5536 102.277 25.5536C101.058 25.5536 99.9172 25.3747 98.8547 25.0168ZM99.6935 10.8743C99.3244 11.1987 99.0169 11.6293 98.7708 12.1661C98.5359 12.703 98.4185 13.374 98.4185 14.1793H105.85C105.85 13.374 105.727 12.703 105.481 12.1661C105.246 11.6293 104.944 11.2043 104.575 10.8911C104.218 10.5668 103.82 10.3431 103.384 10.2201C102.948 10.0859 102.529 10.0187 102.126 10.0187C101.735 10.0187 101.321 10.0859 100.885 10.2201C100.448 10.3431 100.051 10.5612 99.6935 10.8743Z" fill="url(#paint1_linear_493_4118)"/>
<path d="M90.2986 21.1582H92.5299V29.3954H88.1345V25H73.8411V6.71381H78.5888V21.1582H85.5677V6.71381H90.2986V21.1582Z" fill="url(#paint2_linear_493_4118)"/>
<path d="M60.9233 13.1559H70.5529V17.6855H60.9233V13.1559Z" fill="url(#paint3_linear_493_4118)"/>
<path d="M49.2639 13.8941H51.0925C52.155 13.8941 52.9044 13.7095 53.3405 13.3405C53.7879 12.9714 54.0116 12.4345 54.0116 11.7299C54.0116 11.3161 53.9445 10.9694 53.8103 10.6898C53.6873 10.4102 53.5083 10.1865 53.2734 10.0187C53.0498 9.8398 52.7813 9.71677 52.4682 9.64967C52.155 9.57138 51.8139 9.53224 51.4448 9.53224C50.606 9.53224 49.9238 9.72796 49.3981 10.1194C48.8836 10.4997 48.6264 11.0533 48.6264 11.7803H44.1639C44.1751 10.7737 44.3764 9.91809 44.7678 9.21348C45.1705 8.4977 45.7129 7.91612 46.3951 7.46875C47.0774 7.02138 47.8827 6.69704 48.8109 6.49572C49.7392 6.28322 50.7402 6.17697 51.8139 6.17697C53.0218 6.17697 54.0619 6.32237 54.9343 6.61316C55.8067 6.90395 56.528 7.2898 57.0984 7.77072C57.6688 8.25164 58.0882 8.80526 58.3567 9.43158C58.6251 10.0467 58.7593 10.6786 58.7593 11.3273C58.7593 11.8641 58.681 12.3451 58.5244 12.7701C58.3678 13.1839 58.1553 13.5474 57.8869 13.8605C57.6185 14.1625 57.3053 14.4141 56.9475 14.6155C56.6007 14.8168 56.2373 14.9678 55.857 15.0684V15.1355C56.4945 15.2362 57.0369 15.4263 57.4843 15.7059C57.9317 15.9743 58.2952 16.2987 58.5748 16.6789C58.8544 17.0592 59.0557 17.4786 59.1787 17.9372C59.3129 18.3845 59.38 18.8263 59.38 19.2625C59.38 20.4033 59.1563 21.3707 58.709 22.1648C58.2616 22.9589 57.6744 23.6076 56.9475 24.1109C56.2317 24.6141 55.4208 24.9776 54.5149 25.2013C53.6201 25.4362 52.7198 25.5536 51.8139 25.5536C50.6284 25.5536 49.5379 25.4418 48.5425 25.2181C47.5583 25.0056 46.7083 24.6533 45.9925 24.1612C45.2879 23.6579 44.7343 23.0092 44.3317 22.2151C43.929 21.4099 43.7221 20.4257 43.7109 19.2625H48.2405C48.2405 19.6875 48.3188 20.0789 48.4754 20.4368C48.632 20.7947 48.8501 21.1023 49.1297 21.3595C49.4093 21.6168 49.7448 21.8181 50.1363 21.9635C50.5277 22.1089 50.9639 22.1816 51.4448 22.1816C52.0264 22.1816 52.5073 22.0921 52.8876 21.9132C53.279 21.723 53.5866 21.4882 53.8103 21.2086C54.034 20.9289 54.1905 20.6326 54.28 20.3194C54.3807 19.9951 54.431 19.6987 54.431 19.4303C54.431 18.5579 54.1905 17.9484 53.7096 17.6016C53.2399 17.2437 52.485 17.0648 51.4448 17.0648H49.2639V13.8941Z" fill="url(#paint4_linear_493_4118)"/>
<path d="M35.9434 25V13.978H35.8596L29.4007 25H24.2168V6.71381H28.9645V17.9875H29.0316L35.6918 6.71381H40.6744V25H35.9434Z" fill="url(#paint5_linear_493_4118)"/>
<path d="M12.8088 10.0858C13.3904 10.1082 14.0055 10.1921 14.6542 10.3375C15.3141 10.4717 15.9739 10.6898 16.6338 10.9918C17.3049 11.2937 17.9088 11.7243 18.4456 12.2835C18.9825 12.8316 19.4187 13.5362 19.7542 14.3974C20.0897 15.2474 20.2575 16.2987 20.2575 17.5513C20.2575 18.7928 20.0897 19.8385 19.7542 20.6885C19.4187 21.5385 18.9881 22.2431 18.4624 22.8023C17.9479 23.3503 17.372 23.7753 16.7345 24.0773C16.097 24.3681 15.4762 24.5862 14.8723 24.7316C14.2795 24.8658 13.7315 24.9441 13.2282 24.9664C12.7361 24.9888 12.3726 25 12.1377 25H0.109131V0.338806H18.0598V4.58321H5.25946V10.0523H11.3828C11.7519 10.0523 12.2272 10.0635 12.8088 10.0858ZM5.25946 20.7388H10.8292C11.2989 20.7388 11.7799 20.7053 12.272 20.6381C12.7752 20.571 13.2338 20.4256 13.6476 20.202C14.0726 19.9783 14.4193 19.6483 14.6877 19.2122C14.9562 18.7648 15.0904 18.172 15.0904 17.4339C15.0904 16.6622 14.9562 16.0582 14.6877 15.622C14.4305 15.1747 14.0894 14.8391 13.6644 14.6155C13.2394 14.3918 12.7585 14.252 12.2216 14.196C11.696 14.1401 11.1647 14.1122 10.6279 14.1122H5.25946V20.7388Z" fill="url(#paint6_linear_493_4118)"/>
<defs>
<linearGradient id="paint0_linear_493_4118" x1="114.253" y1="7.408" x2="133.283" y2="12.5683" gradientUnits="userSpaceOnUse">
<stop stop-color="#996BD3"/>
<stop offset="1" stop-color="#6B5CD1"/>
</linearGradient>
<linearGradient id="paint1_linear_493_4118" x1="93.7671" y1="6.91257" x2="113.806" y2="12.3073" gradientUnits="userSpaceOnUse">
<stop stop-color="#B96BC4"/>
<stop offset="1" stop-color="#9068D3"/>
</linearGradient>
<linearGradient id="paint2_linear_493_4118" x1="74.1623" y1="7.57487" x2="96.0145" y2="12.9998" gradientUnits="userSpaceOnUse">
<stop stop-color="#E167A8"/>
<stop offset="1" stop-color="#9469D3"/>
</linearGradient>
<linearGradient id="paint3_linear_493_4118" x1="61.0888" y1="13.3279" x2="69.5648" y2="18.757" gradientUnits="userSpaceOnUse">
<stop stop-color="#E567A3"/>
<stop offset="1" stop-color="#DC68AE"/>
</linearGradient>
<linearGradient id="paint4_linear_493_4118" x1="43.9802" y1="6.91257" x2="62.3408" y2="11.386" gradientUnits="userSpaceOnUse">
<stop stop-color="#F96380"/>
<stop offset="1" stop-color="#E167A8"/>
</linearGradient>
<linearGradient id="paint5_linear_493_4118" x1="24.4997" y1="7.408" x2="43.5296" y2="12.5683" gradientUnits="userSpaceOnUse">
<stop stop-color="#FC705B"/>
<stop offset="1" stop-color="#EE6594"/>
</linearGradient>
<linearGradient id="paint6_linear_493_4118" x1="0.45543" y1="1.27502" x2="24.0372" y2="7.07993" gradientUnits="userSpaceOnUse">
<stop stop-color="#FF8F2F"/>
<stop offset="1" stop-color="#FD6B67"/>
</linearGradient>
</defs>
</svg>
